<svg version="1.1" id="Layer_1" xmlns="http://www.w3.org/2000/svg" x="0" y="0" viewBox="0 0 860.1 571.1" style="enable-background:new 0 0 860.1 571.1" xml:space="preserve"><style>.st0{fill:#f2f2f2}.st1{fill:#607caf}.st2{fill:#f0f0f0}.st3{fill:#3f3d56}</style><path class="st0" d="M435.7 160.5c-7.7-12.7-16.8-26.2-31-30.4-16.5-4.8-33.4 4.7-47.8 14.1-42.9 28.1-84.3 58.6-123.9 91.3v.5c30.8-2.1 61.6-4.3 92.5-6.4 22.3-1.5 45.3-3.3 65-13.8 7.5-4 14.7-9.3 23.2-9.7 10.5-.5 19.7 6.9 26.9 14.5 42.6 45.4 54.9 114.8 102.7 154.6-30.1-74.2-66.1-146-107.6-214.7z"/><path class="st0" d="M697.6 545.4c-4.7-5.9-6.6-7.3-11.3-13.3-37.8-48.9-73.4-99.5-106.7-151.8-22.6-35.5-44.1-71.7-64.5-108.5-9.7-17.5-19.1-35.2-28.3-53-7.1-13.8-14.1-27.7-20.9-41.6l-5.7-12c-4.4-9.4-8.8-18.9-13.4-28.2-5.3-10.6-11.8-21.7-21.6-28.9-4.4-3.4-9.8-5.4-15.3-5.9-7.9-.5-15.3 2.8-22.2 6.4-50.4 26.3-97.7 59.3-140.4 96.8-42.8 37.6-81.1 80.1-114 126.6-1 1.4-3.4.1-2.4-1.4 4-5.7 8.1-11.3 12.3-16.8 51.8-68.9 115.3-128.1 187.6-175 12.2-7.9 24.6-15.4 37.2-22.5 6.4-3.6 12.8-7.2 19.3-10.5 6.4-3.3 13.1-6.2 20.4-6.3 24.8-.4 37.6 27.7 46.4 46.5 2.8 5.9 5.6 11.9 8.4 17.8 10.7 22.4 21.8 44.6 33.4 66.6 7.1 13.6 14.4 27.1 21.8 40.5 23.1 41.8 47.7 82.8 73.8 122.9 34.5 53.1 68.7 100.1 108 149.8 1.2 1.2-.8 3.1-1.9 1.8zM245 191.4c-1.4-1.6-2.9-3.2-4.3-4.8-11.4-12.6-23.7-25.1-39.4-32.4-7.5-3.6-15.6-5.5-23.9-5.5-8.6 0-16.9 2.3-24.8 5.4-3.7 1.5-7.4 3.2-11 5-4.1 2.1-8.2 4.3-12.2 6.5-7.6 4.2-15 8.5-22.4 13.1-14.6 9-28.8 18.8-42.5 29.2-7.1 5.4-14.1 11-20.9 16.8-6.3 5.4-12.6 10.9-18.6 16.5-1.3 1.2-3.2-.7-1.9-1.9 1.6-1.5 3.2-3 4.8-4.4 4.6-4.1 9.2-8.2 14-12.2 8.6-7.3 17.5-14.3 26.5-21 14.1-10.5 28.7-20.2 43.8-29.2 7.5-4.5 15.2-8.8 22.9-13 2.3-1.2 4.7-2.5 7.1-3.6 5.4-2.7 11.1-5 16.9-6.9 8.2-2.7 16.9-3.5 25.5-2.5 8.3 1.2 16.3 4 23.5 8.1 15.4 8.6 27.3 21.9 39 34.9 1 1.2-.9 3.2-2.1 1.9z"/><path class="st0" d="m560.5 322.3 36.9-13.5 18.3-6.7c6-2.2 11.9-4.7 18.1-6.2 5.4-1.5 11.1-1.5 16.4.2 4.7 1.8 9.1 4.4 12.8 7.9 3.8 3.5 7.3 7.2 10.5 11.2 4 4.8 7.9 9.6 11.9 14.5 16.3 19.9 32.5 39.9 48.6 60s32.1 40.3 47.9 60.6c15.9 20.3 31.7 40.7 47.4 61.2 1.9 2.5 3.8 5 5.8 7.5 1.1 1.4 3.4 0 2.4-1.4-15.8-20.7-31.7-41.3-47.7-61.8-16.1-20.6-32.2-41.1-48.5-61.5-16.3-20.4-32.7-40.7-49.2-60.9-4.1-5-8.2-10.1-12.4-15.1-3.5-4.2-6.9-8.5-10.7-12.5-7-7.2-15.8-13.6-26.2-13.8-6.2-.1-12.1 1.9-17.8 3.9-6.2 2.2-12.3 4.5-18.5 6.8l-37.2 13.6-9.3 3.4c-1.8.5-1.1 3.2.5 2.6zM196.4 170.1c-18.8-9.6-42.8-7.8-60 4.3 32.9 5.7 65.4 13.3 97.4 22.7-13.3-7.8-23.7-20-37.4-27z"/><path class="st0" d="m136.3 174.4-3.6 2.9c1.2-1 2.5-2 3.8-2.9h-.2zM661.6 322.4c-3.6-4.4-7.6-9.1-13-10.8l-5.1.2C682.2 380 734.3 439.6 796.8 487c-45.1-54.9-90.1-109.7-135.2-164.6zM346.1 285.9c2.3 8.5 7.6 16 14.9 21 2.8 1.9 6.2 3.8 7.1 7 .5 2.1.2 4.3-.9 6.1-1.1 1.8-2.4 3.5-3.9 5l-.1.5c-7-4.1-13.7-9.4-17.5-16.6-3.8-7-4.3-16.4.4-23M579.1 488.9c2.3 8.5 7.6 16 14.9 21 2.8 1.9 6.2 3.8 7.1 7 .5 2.1.2 4.3-.9 6.1-1.1 1.8-2.4 3.5-3.9 5l-.1.5c-7-4.1-13.7-9.4-17.5-16.6s-4.3-16.4.4-23M114.1 474.9c2.3 8.5 7.6 16 14.9 21 2.8 1.9 6.2 3.8 7.1 7 .5 2.1.2 4.3-.9 6.1-1.1 1.8-2.4 3.5-3.9 5l-.1.5c-7-4.1-13.7-9.4-17.5-16.6s-4.3-16.4.4-23"/><circle class="st1" cx="649.2" cy="51" r="51"/><path class="st2" d="M741.3 11.9c-24.7-3.3-52.9 10-59.3 34.1-4.2-11.2-16.7-16.8-27.8-12.6-6.5 2.5-11.5 7.9-13.3 14.7l2.8 2c53 11.5 107.8 11.2 160.7-.7-17.3-18.1-38.4-34.2-63.1-37.5zM635.3 79.9c-24.7-3.3-52.9 10-59.3 34.1-4.2-11.2-16.7-16.8-27.8-12.6-6.5 2.5-11.5 7.9-13.3 14.7l2.8 2c53 11.5 107.8 11.2 160.7-.7-17.3-18.1-38.4-34.2-63.1-37.5z"/><path class="st0" d="M851 92.7h-.3C586.3 9.1 353.3 20 204.3 43.9c-20.3 3.3-40.6 7-60.4 11.2-5.1 1.1-10.3 2.2-15.6 3.4-6.3 1.4-12.6 2.9-18.5 4.3-2.6.6-5.1 1.2-7.6 1.8-3.8.9-7.6 1.9-11.7 3-4.6 1.2-9.2 2.4-13.8 3.7h-.1c-5.2 1.4-10.3 2.9-15.3 4.3-2.7.8-5.3 1.5-7.8 2.3-.3.1-.5.2-.8.2l-.5.2-.9.3-.8.3c-1 .3-1.9.6-2.8.9-24.5 7.6-38 12.9-38.2 13-.5.2-1.1 0-1.3-.6s0-1.1.6-1.3c.1-.1 13.7-5.5 38.3-13.1.9-.3 1.9-.6 2.8-.9l.8-.2h.1l.9-.3.5-.2c.3-.1.5-.2.8-.2 2.5-.8 5.1-1.5 7.8-2.3 5-1.5 10.1-2.9 15.3-4.3 4.6-1.3 9.3-2.5 13.8-3.7 4.1-1.1 7.9-2 11.7-3 2.5-.6 5-1.2 7.6-1.9 6-1.5 12.2-2.9 18.6-4.3 5.3-1.2 10.6-2.3 15.6-3.4 19.8-4.2 40.2-7.9 60.5-11.2C353.2 18 586.5 7 851.3 90.8c.5.2.8.7.7 1.3-.2.3-.6.6-1 .6z"/><path class="st3" d="M263 419.8c-.3-1-.9-1.9-1.7-2.7-.3-.3-.6-.5-.9-.7-2.6-1.7-6.5-2.1-9 0l-.7.7c-.7.9-1.5 1.8-2.3 2.7-1.3 1.5-2.6 2.9-4 4.2l-1.2 1.2-.7.7c-.9.8-1.8 1.7-2.7 2.5-.5.4-1 .8-1.5 1.3-.7.6-1.5 1.2-2.2 1.8-.1 0-.1.1-.2.2h-.1c-.2.2-.4.2-.5.3 0 0 .1 0 .1-.1-.2.1-.4.3-.5.4-1.8 1.3-3.5 2.5-5.4 3.7-4.5 2.9-9.3 5.4-14.2 7.5-.3.1-.7.3-1 .4-12.9 5.3-26.9 7.4-40.9 6-1.4-.1-2.8-.3-4.3-.5-1.6-.2-3.3-.5-4.9-.9-6.2-1.2-12.2-3.1-18-5.4-7.3-3.3-14.2-7.4-20.7-12.1l-3-2.1c1.1-2.8 2.3-5.6 3.4-8.5.5-1.4 1.1-2.7 1.6-4.1 4.1-10.6 7.9-21.4 11.6-32.1 3.7-10.9 7.2-21.9 10.5-32.9.3-1.1.7-2.2 1-3.4 1.7-5.8 3.4-11.7 5-17.5.1-.6.3-1.1.5-1.7.5-1.7.9-3.4 1.4-5 1-3.8-1.3-8.3-5.2-9.2-4-1-8.1 1.3-9.2 5.2-.4 1.6-.9 3.2-1.3 4.8-2.1 7.8-4.3 15.6-6.7 23.4-.3 1.1-.7 2.2-1 3.4-5.1 16.9-10.8 33.7-16.9 50.3-.7 2-1.5 4-2.2 6-.4 1-.7 2-1.1 2.9-.7 1.9-1.5 3.9-2.2 5.8-.4 1.1-.9 2.3-1.3 3.4l-.9 2.1c-2.9-1-5.8-1.7-8.8-2.1l-.5-.1c-2.3-.3-4.7-.3-7 .1-7 .8-13.4 4.7-17.2 10.7-4.8 7.5-4.7 18.2 2 24.6 6.9 6.6 17.3 6.5 25.4 2.4 4.3-2.3 7.9-5.7 10.5-9.9 1-1.5 1.9-3.1 2.7-4.7.2.1.4.3.6.4.8.6 1.6 1.1 2.4 1.7 4.6 3.3 9.5 6.3 14.5 8.9 10.9 5.4 22.6 8.9 34.6 10.5.3 0 .5.1.8.1 1.3.2 2.7.3 4 .4 19.2 1.4 38.5-2.5 55.6-11.4 1.4-.8 2.9-1.5 4.3-2.4 2.2-1.3 4.4-2.6 6.5-4.1 1.1-.8 2.3-1.6 3.4-2.4 4.9-3.6 9.4-7.6 13.5-12 1.6-1.6 3.1-3.4 4.5-5.1 1.4-1.4 2.1-3.3 2.2-5.3 0-.5-.2-1.4-.5-2.3zM97.4 443.7c.2-.2.4-.3.6-.5 0 .1-.3.3-.6.5zm3.2-3.3c-.2.3-.4.5-.7.8-.7.8-1.5 1.5-2.2 2.2-.1.1-.2.2-.4.3-.1.1-.3.1-.4.2-.4.3-.9.5-1.3.7-.9.3-1.8.6-2.7.8-.7.1-1.4.1-2.1 0-.5-.1-1-.2-1.5-.4-.2-.1-.5-.3-.7-.4l-.2-.2-.3-.3-.3-.6c-.1-.2-.1-.5-.2-.8v-1.4c.1-.6.3-1.3.5-1.9.2-.4.4-.9.7-1.3l.2-.4c.1-.2.3-.3.5-.5.3-.3.6-.6.9-.8.6-.4 1.1-.7 1.8-1 1-.3 1.9-.6 2.9-.8 1.5-.1 2.9-.1 4.4 0 1.4.2 2.8.6 4.1 1-.8 1.6-1.7 3.1-2.8 4.5-.1.2-.2.3-.2.3zm-11.1-3.3c-.1.1-.2.3-.3.4.1-.1.2-.2.3-.4z"/><path class="st3" d="M232.9 317.7c-.1 3.1-.2 6.3-.3 9.4L232 348c-.2 7.8-.4 15.7-.7 23.5l-.3 12.2-.9 32.7c0 1.1-.1 2.2-.1 3.4-.1 5.4-.3 10.8-.5 16.2-.2 5.9-.3 11.7-.5 17.6-.1 4.4-.2 8.8-.4 13.2l-2.7 95.8c-.1 4.1-3.4 7.4-7.5 7.5-4.1 0-7.5-3.4-7.5-7.5l1.5-53.9c.5-16.2.9-32.5 1.4-48.7.1-5.4.3-10.7.5-16.1.2-8.1.5-16.1.7-24.2 0-1.1.1-2.2.1-3.4 0-1 0-2 .1-3 .4-15.7.9-31.3 1.3-47 .2-6.2.4-12.3.5-18.5l.6-21.1.3-9.3c.1-4.1 3.4-7.4 7.5-7.5 4.2.3 7.5 3.7 7.5 7.8zM644.4 319.8c-7.9 29.8-17.3 59.1-28.2 87.9-3 7.9-6.1 15.9-9.4 23.7l.8-1.8c-1.5 3.7-3.3 7.3-5.6 10.6-.2.2-.3.4-.5.6.8-1 .9-1.2.4-.6-.3.3-.5.6-.8.9-.7.8-1.5 1.5-2.2 2.2-.2.2-.4.3-.6.5l.9-.7c-.1.3-.9.6-1.1.7-.8.5-1.6.9-2.4 1.2l1.8-.8c-1.4.5-2.8.9-4.2 1.2l2-.3c-1.4.2-2.9.2-4.3 0l2 .3c-1.2-.2-2.3-.5-3.4-.9l1.8.8c-.6-.3-1.1-.6-1.7-.9-.3-.2-1.1-.8 0 0 1.1.9.1.1-.1-.2l-.6-.6c-.9-.9 1 1.6.4.5-.3-.5-.6-1.1-.9-1.6l.8 1.8c-.3-.9-.6-1.7-.7-2.7l.3 2c-.1-1.1-.1-2.3 0-3.4l-.3 2c.2-1.3.5-2.5 1-3.7l-.8 1.8c.3-.8.7-1.6 1.2-2.3.2-.4.5-.7.7-1.1 0 0-1.3 1.5-.6.8.2-.2.4-.4.5-.6l.9-.9c1-1-1.5 1-.3.2.9-.6 1.8-1.1 2.7-1.5l-1.8.8c1.6-.7 3.3-1.1 5-1.3l-2 .3c2.1-.2 4.3-.2 6.5.1l-2-.3c2.7.4 5.4 1.2 7.9 2.2l-1.8-.8c5.4 2.3 10.2 5.7 14.9 9.1 4.6 3.3 9.5 6.3 14.5 8.9 10.9 5.4 22.6 8.9 34.6 10.5 35.1 4.3 70-9.5 92.6-36.8 1.4-1.4 2.1-3.3 2.2-5.3 0-2-.8-3.9-2.2-5.3-2.8-2.5-7.9-3.2-10.6 0-2.5 3.1-5.2 6-8.1 8.7-1.3 1.3-2.7 2.5-4.1 3.7-.8.7-1.6 1.4-2.5 2-.4.3-1.6 1.1.3-.2-.4.3-.8.6-1.3 1-6.3 4.6-13.1 8.5-20.3 11.6l1.8-.8c-7.7 3.2-15.9 5.5-24.2 6.6l2-.3c-8.5 1.1-17.2 1.1-25.8 0l2 .3c-8.5-1.2-16.9-3.4-24.9-6.8l1.8.8c-7.7-3.4-15-7.6-21.7-12.6-3.5-2.6-7.2-4.9-11.1-7-4.5-2.3-9.4-3.8-14.4-4.4-9.4-1.1-19.1 2.6-24.2 10.7-4.8 7.5-4.7 18.2 2 24.6 6.9 6.6 17.3 6.5 25.4 2.4 7.8-4 12.5-12.2 15.8-19.9 7.4-17.5 14-35.3 20.1-53.3 6.1-17.8 11.6-35.7 16.5-53.8.6-2.2 1.2-4.5 1.8-6.7 1-3.8-1.3-8.3-5.2-9.2-3.8-.9-7.9 1.4-9 5.4z"/><path class="st3" d="m719.2 317.7-2.7 95.8-2.7 95.3-1.5 53.9c0 4.1 3.4 7.5 7.5 7.5 4.1-.1 7.4-3.4 7.5-7.5l2.7-95.8 2.7-95.3 1.5-53.9c0-4.1-3.4-7.5-7.5-7.5-4.1.1-7.4 3.4-7.5 7.5z"/><path d="M459.6 535.9h2.3v-106h54.3v-2.3h-54.3v-44.7h42c-.6-.8-1.2-1.6-1.9-2.3h-40.1V351c-.8-.3-1.5-.6-2.3-.9v30.5h-45.7v-37.9c-.8 0-1.6.1-2.3.2v37.7h-36.4v-28.3c-.8.3-1.6.7-2.3 1.1v27.2h-30.6v2.3h30.6v44.7h-30.6v2.3h30.6v106h2.3v-106c20.1 0 36.4 16.3 36.4 36.4v69.6h2.3v-106h45.7v106zm-84.4-108.3v-44.7h36.4v44.7h-36.4zm38.7 0v-44.7h.9c24.7 0 44.7 20 44.7 44.7h-45.6z" style="opacity:.2;enable-background:new"/><path class="st3" d="M445.4 504.1c-2.9 13.1-10 24.9-20 33.7-.7.6-1.5 1.3-2.2 1.9-1.9.2-3.7.3-5.6.5-1.5.1-3 .3-4.5.4h-.3l-.2-1.6-.8-6.6c-6-9.8-7.2-21.7-3.3-32.4 2.6-7.1 7.4-13.4 12.1-19.7 6.5-8.6 12.8-17.1 13-27.7 3.2 4.1 5.8 8.6 7.9 13.3-1.9.9-3.7 2.2-5.1 3.8-.4.5-.8 1.1-.5 1.6.2.5.8.6 1.4.6 1.2.1 2.5.3 3.8.4l3 .3c1.2 4 2 8.1 2.5 12.2.5 6.5.1 13-1.2 19.3z"/><path class="st1" d="M478.6 477.9c-5.9 4.3-9.3 10.5-12 17.3-2.7.9-5.2 2.5-7.2 4.6-.4.5-.8 1.1-.5 1.6.2.5.8.6 1.4.6 1.2.1 2.5.3 3.8.4-2.7 8-5.1 16.4-9.9 23.2-3.2 4.5-7.3 8.2-12 10.9-1.3.7-2.6 1.4-4 2-5.1.4-10.1.8-15 1.2-1.9.2-3.7.3-5.6.5-1.5.1-3 .3-4.5.4v-1.7c.3-14.7 5.7-28.7 15.2-39.9.5-.5.9-1 1.4-1.5 4.8-5.2 10.5-9.5 16.8-12.7 9.8-5 20.9-7.5 32.1-6.9z"/><path class="st1" d="m419.2 535.1-1.2 3.4-.6 1.7c-1.5.1-3 .3-4.5.4h-.3c-1.7.2-3.3.3-5 .5-.4-.5-.9-1-1.3-1.5-21.7-26.3-18.1-65.2 8.1-87.1-1.3 6.9.2 13.5 2.8 20.1-.3.1-.5.2-.8.3-1.9.9-3.7 2.2-5.1 3.8-.4.5-.8 1.1-.5 1.6.2.5.8.6 1.4.6 1.2.1 2.5.3 3.8.4l3 .3c.5 0 .9.1 1.4.2.1.2.1.3.2.4 2.8 6.2 5.9 12.4 7.7 18.8.4 1.6.8 3.3 1 4.9 1.5 11.5-2.2 22.9-10.1 31.2z"/><path class="st3" d="M519.9 390.1c-8.6-16.8-21.9-30.9-37.6-41.3-15.7-10.4-33.8-16.7-52.6-18.4-2.5-.2-4.9-.4-7.4-.4-2.9 0-46.9 12.6-61.6 23-14.7 10.2-26.8 23.8-35.3 39.5-8.5 15.8-12.7 33.7-12.1 51.6.7 18.1 5.8 35.7 14.7 51.5 8.8 15.7 21.3 29 36.4 38.7 15.3 9.8 30.7 35.7 48.9 36.7 18.2.9 39.1-23.6 55.7-31 16.6-7.5 31-19.2 41.7-34 10.4-14.5 17.1-31.3 19.6-48.9 2.6-18.1 1.4-36.7-4.8-54-1.6-4.5-3.5-8.8-5.6-13-1.8-3.5-7-4.8-10.3-2.7-3.5 2.2-4.7 6.7-2.7 10.3 1 2.1 2 4.2 2.9 6.3l-.8-1.8c3.4 8.2 5.7 16.8 6.9 25.5l-.3-2c1.2 9.5 1.2 19.2-.1 28.7l.3-2c-1.3 9.5-3.8 18.8-7.6 27.7l.8-1.8c-1.9 4.5-4.1 8.9-6.7 13.1-1.3 2.1-2.6 4.2-4.1 6.2-.6.9-1.3 1.8-1.9 2.6-.9 1.1 1.2-1.5.3-.4-.2.2-.3.4-.5.6-.5.6-.9 1.1-1.4 1.7-3.1 3.7-6.5 7.2-10.2 10.4-.9.8-1.8 1.6-2.8 2.3-.5.4-.9.8-1.4 1.1 0 0 1.6-1.2.7-.5-.3.2-.6.4-.9.7-1.9 1.4-3.9 2.8-6 4.1-4.7 3-9.6 5.5-14.8 7.7l1.8-.8c-8.8 3.7-18.1 6.3-27.6 7.6l2-.3c-9.5 1.3-19.1 1.3-28.6.1l2 .3c-8.6-1.2-17.1-3.4-25.1-6.8l1.8.8c-4.7-2-9.1-4.3-13.4-7-2.1-1.3-4.2-2.7-6.2-4.2l-.9-.6c-.9-.7.7.5.7.5l-1.5-1.2c-1-.8-1.9-1.6-2.9-2.4-3.8-3.3-7.3-6.9-10.5-10.7-.8-1-1.6-1.9-2.4-2.9-.3-.4-.9-1.3.4.5-.2-.2-.4-.5-.5-.7-.4-.6-.9-1.1-1.3-1.7-1.5-2-2.9-4.1-4.2-6.2-3-4.8-5.6-9.9-7.8-15.1l.8 1.8c-3.6-8.6-6.1-17.6-7.3-26.8l.3 2c-1.1-8.5-1.2-17.1 0-25.6l-.3 2c1.1-8.2 3.4-16.3 6.6-24l-.8 1.8c2-4.8 4.4-9.4 7.2-13.9 1.4-2.2 2.8-4.4 4.4-6.5.4-.5.7-1 1.1-1.4.3-.4 1.2-1.5-.3.4.1-.2.3-.4.4-.6.8-1.1 1.7-2.1 2.6-3.2 3.4-3.9 7-7.6 10.9-11 1-.9 2-1.7 3-2.5.5-.4.9-.7 1.4-1.1.2-.1.4-.3.6-.4-2 1.6-.6.4-.1.1 2.1-1.6 4.2-3.1 6.4-4.5 4.9-3.1 10-5.8 15.4-8.1l-1.8.8c7.8-3.3 42.1-10.9 48.4-10.1l-2-.3c9.2 1.3 18.2 3.8 26.7 7.4l-1.8-.8c4.3 1.8 8.5 4 12.6 6.3 2 1.2 4 2.4 6 3.8.9.6 1.8 1.3 2.7 1.9.5.3.9.7 1.3 1 .2.2.5.4.7.6 1 .8-1.4-1.1-.3-.3 3.6 2.9 7.1 6 10.4 9.3 1.6 1.6 3.1 3.3 4.6 5 .8.9 1.5 1.8 2.2 2.7.4.5 1.6 2.1.1.1.4.5.7 1 1.1 1.5 3.2 4.3 6 8.8 8.4 13.5 1.8 3.5 7 4.8 10.3 2.7 3.7-2.5 4.9-7 2.9-10.6z"/><path class="st3" d="M432.5 512.5c-2.1.1-3.9-1.5-3.9-3.6-.1-1.1.4-2.2 1.2-2.9.1-.4.2-.7.3-1 0-.1-.1-.2-.1-.2-3.5-8.3-25.7 14.8-26.6 22.6-.4 3.4-.2 6.9.5 10.3-7.2-15.7-10.9-32.7-11-50 0-4.3.2-8.7.7-13 .4-3.5 1-7 1.7-10.5 3.9-18.9 12.1-36.6 24.2-51.6 6.9.4 12.9-.7 13.5-14 .1-2.4 1.9-4.4 2.2-6.8-.7.1-1.3.1-2 .2h-.7c-2.1.1-3.8-1.5-3.9-3.6 0-.9.3-1.8.8-2.5.3-.3.6-.7.9-1 .4-.5.9-1.1 1.3-1.6 0-.1.1-.1.1-.2l1.5-1.8c-.9-1.4-2.1-2.6-3.6-3.4-5-2.9-11.8-.9-15.4 3.6-3.6 4.5-4.3 10.8-3 16.4 1.2 4.8 3.3 9.3 6 13.4-.3.3-.5.7-.8 1-4.9 6.3-9.2 13.1-12.8 20.3 1-7.9-11.4-36.6-16.2-42.7-5.8-7.3-17.6-4.1-18.6 5.1v.3c.7.4 1.4.8 2.1 1.3 2.4 1.6 3 4.8 1.4 7.1-.8 1.2-2.1 2-3.5 2.2h-.1c-9.6 13.6 21.1 49.2 28.7 41.2-3.6 10.2-5.9 20.9-6.7 31.7-.5 6.4-.5 12.8.1 19.2v-.2c-1.7-13.9-30.9-34.5-39.5-32.8-4.9 1-9.8.8-9 5.7v.2c1.3.5 2.6 1.2 3.9 1.9.7.4 1.4.8 2.1 1.3 2.4 1.6 3 4.8 1.4 7.1-.8 1.2-2.1 2-3.5 2.2H345.9c-4.3 15 27.9 39.1 47.5 31.4 1.9 8.4 4.8 16.7 8.4 24.5h30c.1-.3.2-.7.3-1-2.8.2-5.6 0-8.3-.5 2.2-2.7 4.5-5.5 6.7-8.2 0-.1.1-.1.1-.2 1.1-1.4 2.3-2.8 3.4-4.2 0-4.3-.5-8.6-1.5-12.7zm-34.4-67.7zm-6.6 60-.3-.6V502.5c.1.8.2 1.6.3 2.3z"/><circle class="st3" cx="95.2" cy="439" r="11"/><circle class="st3" cx="227.2" cy="559" r="11"/><circle class="st3" cx="728.2" cy="559" r="11"/><circle class="st3" cx="755.2" cy="419" r="11"/><circle class="st3" cx="723.2" cy="317" r="11"/><path class="st3" d="M264.2 419c0 6-4.9 10.9-11 10.9-6 0-10.9-4.9-10.9-11 0-6 4.9-10.9 11-10.9 5.2 0 9.7 3.7 10.7 8.8.2.8.3 1.5.2 2.2z"/><circle class="st3" cx="484.2" cy="349" r="11"/><path class="st3" d="M375.2 349c0 6-4.9 10.9-11 10.9-6 0-10.9-4.9-10.9-11s4.9-10.9 11-10.9c5.2 0 9.7 3.7 10.7 8.8.2.8.3 1.5.2 2.2zM233.2 317c0 6-4.9 10.9-11 10.9-6 0-10.9-4.9-10.9-11 0-6 4.9-10.9 11-10.9 5.2 0 9.7 3.7 10.7 8.8.2.8.3 1.5.2 2.2z"/><circle class="st3" cx="599.2" cy="443" r="11"/><circle class="st3" cx="426.2" cy="338" r="16"/><path d="m858.9 570.8-857.7.3c-.7 0-1.2-.5-1.2-1.2s.5-1.2 1.2-1.2l857.8-.3c.7 0 1.2.5 1.2 1.2-.1.7-.6 1.2-1.3 1.2z" style="fill:#cacaca"/></svg>